<svg xmlns="http://www.w3.org/2000/svg" width="100" height="100" viewBox="215 90 600 600" preserveAspectRatio="none">
  <rect x="215" y="90" width="600" height="600" fill="#000000" rx="100" />
  <path fill="#FF0000" d="M729.303 138.301c-2.796 1.597-38.001 31.795-50.299 43.203-13.599 12.595-71.199 67.697-93 88.996-50.995 49.705-123.095 118.702-161.495 154.501-11.5 10.701-25.303 23.695-30.802 28.703-5.396 5.1-10.199 9.298-10.701 9.298-2.601 0-16.097-25.098-20.398-38.001-5.704-17.295-5.704-16.599-5.396-101.796l.297-78.397 7.004-2.898c10.598-4.495 40.602-14.602 53.002-17.9 38.4-10.004 70.799-13.701 109.496-12.698 23.204.604 31.898 1.597 54.303 6.298l13.097 2.703 12.001-12.401a973 973 0 0 0 20.296-21.596l8.305-9.001-7.301-2.202c-39.803-11.704-95.703-17.9-138.199-15.196-60.099 3.901-118.098 18.995-173.199 45.097l-12.298 5.898v94.996c0 78.797.297 97.004 1.495 106.496 3.697 28.099 16.701 59.699 34.898 84.695l4.495 6.195-7.997 8.704c-15.401 16.804-51.302 64.799-57.098 76.503-1.802 3.502-1.403 5.499 1.096 5.499 1.7 0 24.003-8.202 41.103-15.104 10.301-4.198 36.403-18.299 52.695-28.498 11.602-7.301 13.701-8.305 15.104-7.199.901.696 5.704 4.7 10.701 8.796 27.197 22.702 69.202 50.698 104.499 69.796l9.503 5.1 21.504-12.298c65.495-37.396 97.997-60.6 128.102-91.197 15.299-15.596 20.204-21.903 29.901-38.4 14.295-24.197 22.303-45.496 25.6-68.803 1.495-10.301 1.7-22.999 1.802-104.899.102-51.302 0-93.297-.102-93.297 0 0-2.796 5.499-6.103 12.196-10.404 21.002-25.805 45.804-38.502 62.095l-7.7 9.8v50.196c0 56.003-.205 58.501-6.605 77.804-11.1 33.198-32.604 59.003-75.397 90.204-11.602 8.499-49.101 32.799-65.7 42.598l-7.301 4.301-10.199-6.298a635 635 0 0 1-66.202-46.295l-9.8-7.997 2.796-2.499c1.597-1.3 13.701-12.401 26.9-24.596s31.703-29.102 41.001-37.499c32.604-29.297 102.298-96.297 126.996-122.102 28.805-30.095 52.695-62.904 68.803-94.597 11.397-22.405 38.697-83.098 38.697-85.996 0-2.601-.604-2.703-3.697-1.004"/>
</svg>
